<mxfile host="app.diagrams.net" modified="2023-12-01T07:08:47.470Z" agent="Mozilla/5.0 (Windows NT 10.0; Win64; x64) AppleWebKit/537.36 (KHTML, like Gecko) Chrome/116.0.5845.664 YaBrowser/23.9.5.664 Yowser/2.5 Safari/537.36" version="22.1.5" etag="Yk7koniebk-uAvlKpDyB" type="github">
  <diagram name="Страница — 1" id="qtq_mTUTZQdcUr1hRLNY">
    <mxGraphModel>
      <root>
        <mxCell id="0" />
        <mxCell id="1" parent="0" />
      </root>
    </mxGraphModel>
  </diagram>
</mxfile>
